<svg width="20" height="21" viewBox="0 0 20 21" fill="none" xmlns="http://www.w3.org/2000/svg">
<path fill-rule="evenodd" clip-rule="evenodd" d="M5.29279 7.5535C5.48031 7.35933 5.73462 7.25025 5.99979 7.25025C6.26495 7.25025 6.51926 7.35933 6.70679 7.5535L9.99979 10.9641L13.2928 7.5535C13.385 7.45457 13.4954 7.37567 13.6174 7.32139C13.7394 7.26711 13.8706 7.23854 14.0034 7.23734C14.1362 7.23615 14.2678 7.26235 14.3907 7.31443C14.5136 7.36651 14.6253 7.44341 14.7192 7.54066C14.8131 7.6379 14.8873 7.75354 14.9376 7.88083C14.9879 8.00811 15.0132 8.1445 15.012 8.28202C15.0109 8.41954 14.9833 8.55545 14.9309 8.68181C14.8785 8.80817 14.8023 8.92245 14.7068 9.018L10.7068 13.1609C10.5193 13.355 10.265 13.4641 9.99979 13.4641C9.73462 13.4641 9.48031 13.355 9.29279 13.1609L5.29279 9.018C5.10532 8.82377 5 8.56038 5 8.28575C5 8.01111 5.10532 7.74772 5.29279 7.5535Z" fill="black"/>
</svg>
